<svg width="74" height="73" viewBox="0 0 74 73" fill="none" xmlns="http://www.w3.org/2000/svg">
<path d="M55.8302 27.2973C56.5628 27.6556 57.3715 26.9786 57.1234 26.2099C55.5016 21.1867 50.4157 9.13345 38.8156 8.52369C25.5993 7.82909 21.6206 16.0207 22.908 20.4582L24.454 23.4753C25.1587 25.6943 27.4223 29.6203 34.6057 29.4069C43.8617 29.1318 48.034 23.4851 55.8302 27.2973Z" fill="#8AC44B"/>
<path d="M40.1371 13.7462C47.0463 13.7489 52.0307 17.5944 55.4601 21.9462C52.8732 16.3283 47.7976 8.99574 38.8156 8.52369C25.5993 7.82909 21.6206 16.0207 22.908 20.4582L23.8313 22.26C25.387 18.0387 30.2769 13.7423 40.1371 13.7462Z" fill="#009900"/>
<path d="M61.734 37.8537L58.3123 37.6659C56.0119 37.1585 51.4335 37.1294 48.0291 43.373C43.6427 51.418 46.5136 57.806 39.269 62.5602C38.5881 63.0071 38.7782 64.0364 39.5771 64.2087C44.7978 65.3348 57.9222 67.0164 64.2575 57.411C71.4753 46.4674 66.2734 38.9725 61.734 37.8537Z" fill="#8AC44B"/>
<path d="M44.7282 64.5113C51.9728 59.4514 49.1019 52.6528 53.4883 44.0909C55.8995 39.3846 58.8994 38.0275 61.262 37.8279L58.3123 37.666C56.0119 37.1586 51.4335 37.1295 48.0291 43.3731C43.6427 51.4181 46.5136 57.8061 39.269 62.5603C38.5881 63.0072 38.7782 64.0365 39.5771 64.2088C40.8058 64.4739 42.4725 64.7696 44.3853 64.9418C44.452 64.7766 44.5642 64.6258 44.7282 64.5113Z" fill="#009900"/>
<path d="M15.8797 30.5454C15.8279 29.7403 14.8292 29.3881 14.2785 29.9844C10.6796 33.8815 2.6411 44.2532 7.9059 54.4682C13.9043 66.1065 23.085 65.4098 26.3369 62.0911L28.2126 59.2618C29.8082 57.5501 32.123 53.6533 28.344 47.6231C23.4745 39.8532 16.4312 39.1119 15.8797 30.5454Z" fill="#8AC44B"/>
<path d="M12.9929 54.4682C8.92774 46.5806 12.7941 38.6006 16.4239 33.5791C16.1418 32.6824 15.9529 31.6836 15.8797 30.5454C15.8279 29.7403 14.8292 29.3881 14.2785 29.9844C10.6796 33.8815 2.6411 44.2531 7.9059 54.4682C12.4928 63.3679 18.9404 65.0545 23.175 63.8716C19.7404 62.9883 15.9738 60.2517 12.9929 54.4682Z" fill="#009900"/>
<path d="M18.6884 25.3787C18.4527 25.5648 18.3308 25.8374 18.3271 26.114L18.9566 26.8901C19.3168 27.3343 19.9894 27.3664 20.3918 26.959C22.8357 24.485 31.0036 17.1483 40.12 19.2322C40.317 19.2772 40.4806 19.2089 40.5856 19.091C36.8431 17.4136 29.6984 16.6898 18.6884 25.3787Z" fill="#C4E0A6"/>
<path d="M18.8506 25.3938C29.7009 16.8309 36.738 17.5541 40.4192 19.2093C40.7437 19.0736 40.8485 18.5837 40.4762 18.3624C37.1969 16.4124 29.8542 14.4943 17.8269 23.9862C17.4143 24.3117 17.349 24.9072 17.679 25.3143L18.5197 26.3509C18.4364 26.0063 18.552 25.6295 18.8506 25.3938Z" fill="#ADD57F"/>
<path d="M61.1775 31.7488C61.098 31.2335 60.6078 30.8799 60.0855 30.9584L59.0365 31.1161C58.8115 31.3486 58.7088 31.6884 58.8051 32.0256C59.755 35.3504 62.1119 45.997 55.7242 52.7432C55.558 52.9187 55.5598 53.1348 55.6547 53.2987L55.692 53.3578C59.005 51.0986 63.2974 45.4796 61.1775 31.7488Z" fill="#C4E0A6"/>
<path d="M55.8478 52.7432C62.2355 45.9969 59.8787 35.3504 58.9288 32.0256C58.8295 31.6783 58.9402 31.3272 59.1797 31.0945L58.0629 31.2622C57.4927 31.3479 57.1283 31.9063 57.2849 32.454C58.2348 35.7788 60.5916 46.4253 54.2039 53.1715C53.8285 53.568 54.3081 54.1728 54.7895 53.9105C55.1041 53.739 55.4365 53.5367 55.7785 53.2986C55.6834 53.1348 55.6818 52.9188 55.8478 52.7432Z" fill="#ADD57F"/>
<path d="M33.3024 60.9899C29.9086 60.1391 19.3838 56.8292 16.655 47.999C16.5717 47.7291 16.3233 47.63 16.1025 47.672C16.2372 47.6976 16.362 47.7772 16.4336 47.9192C16.9053 51.9472 19.9412 58.2579 32.8033 63.2151C33.0709 63.3182 33.3563 63.2939 33.5939 63.174L33.9595 62.2505C34.1695 61.7206 33.8614 61.1301 33.3024 60.9899Z" fill="#C4E0A6"/>
<path d="M32.8119 63.0461C20.0897 58.1427 17.0869 51.9007 16.6203 47.9165C16.4074 47.4944 15.7225 47.6186 15.7128 48.13C15.6405 51.9065 17.6281 59.1387 31.9744 64.668C32.4665 64.8576 33.022 64.6157 33.2142 64.1302L33.6784 62.9581C33.429 63.1169 33.1092 63.1606 32.8119 63.0461Z" fill="#ADD57F"/>
</svg>
